<svg width="12" height="12" viewBox="0 0 12 12" fill="none" xmlns="http://www.w3.org/2000/svg">
<path d="M3.71426 3.14286V0.857147V3.14286ZM8.28569 3.14286V0.857147V3.14286ZM3.14283 5.42858H8.85712H3.14283ZM1.99997 11.1429H9.99997C10.3031 11.1429 10.5938 11.0225 10.8081 10.8081C11.0224 10.5938 11.1428 10.3031 11.1428 10V3.14286C11.1428 2.83976 11.0224 2.54907 10.8081 2.33474C10.5938 2.12041 10.3031 2 9.99997 2H1.99997C1.69687 2 1.40618 2.12041 1.19185 2.33474C0.977524 2.54907 0.857117 2.83976 0.857117 3.14286V10C0.857117 10.3031 0.977524 10.5938 1.19185 10.8081C1.40618 11.0225 1.69687 11.1429 1.99997 11.1429Z" stroke="#96999C" stroke-linecap="round" stroke-linejoin="round"/>
</svg>
