<svg width="12" height="15" viewBox="0 0 12 15" fill="none" xmlns="http://www.w3.org/2000/svg">
<path d="M8.93875 3.85714C8.93875 4.6149 8.62913 5.34163 8.078 5.87745C7.52687 6.41327 6.77939 6.71429 5.99997 6.71429C5.22056 6.71429 4.47307 6.41327 3.92195 5.87745C3.37082 5.34163 3.0612 4.6149 3.0612 3.85714C3.0612 3.09938 3.37082 2.37266 3.92195 1.83684C4.47307 1.30102 5.22056 1 5.99997 1C6.77939 1 7.52687 1.30102 8.078 1.83684C8.62913 2.37266 8.93875 3.09938 8.93875 3.85714V3.85714ZM5.99997 8.85714C4.636 8.85714 3.3279 9.38393 2.36342 10.3216C1.39895 11.2593 0.857117 12.5311 0.857117 13.8571H11.1428C11.1428 12.5311 10.601 11.2593 9.63652 10.3216C8.67205 9.38393 7.36394 8.85714 5.99997 8.85714V8.85714Z" stroke="#96999C" stroke-linecap="round" stroke-linejoin="round"/>
</svg>
