<svg width="19" height="19" viewBox="0 0 19 19" fill="none" xmlns="http://www.w3.org/2000/svg">
<path d="M18.354 12.354C16.7172 13.0122 14.9231 13.1748 13.1946 12.8217C11.4662 12.4686 9.87962 11.6153 8.63217 10.3678C7.38472 9.12037 6.53139 7.53381 6.17827 5.80535C5.82514 4.0769 5.98779 2.28277 6.64599 0.645996C4.7077 1.42673 3.10135 2.85739 2.10232 4.69272C1.10328 6.52805 0.773783 8.65374 1.17031 10.7054C1.56683 12.757 2.66467 14.6069 4.27565 15.9378C5.88662 17.2687 7.91037 17.9977 9.99999 18C11.7969 18.0001 13.5527 17.4624 15.0415 16.4562C16.5303 15.45 17.684 14.0213 18.354 12.354Z" fill="#333333" stroke="#333333" stroke-linecap="round" stroke-linejoin="round"/>
</svg>
