<svg width="16" height="18" viewBox="0 0 16 18" fill="none" xmlns="http://www.w3.org/2000/svg">
<path d="M10.625 13.4444H5.375M10.625 13.4444H15L13.7706 12.1956C13.6055 12.0278 13.4746 11.8287 13.3853 11.6095C13.2959 11.3903 13.25 11.1554 13.25 10.9182V8.11111C13.2501 7.00794 12.9136 5.93186 12.2868 5.03101C11.66 4.13017 10.7737 3.44886 9.75 3.08089V2.77778C9.75 2.30628 9.56563 1.8541 9.23744 1.5207C8.90925 1.1873 8.46413 1 8 1C7.53587 1 7.09075 1.1873 6.76256 1.5207C6.43437 1.8541 6.25 2.30628 6.25 2.77778V3.08089C4.21125 3.81333 2.75 5.78933 2.75 8.11111V10.9191C2.75 11.3973 2.56275 11.8569 2.22938 12.1956L1 13.4444H5.375H10.625ZM10.625 13.4444V14.3333C10.625 15.0406 10.3484 15.7189 9.85616 16.219C9.36387 16.719 8.69619 17 8 17C7.30381 17 6.63613 16.719 6.14384 16.219C5.65156 15.7189 5.375 15.0406 5.375 14.3333V13.4444H10.625Z" stroke="#333333" stroke-linecap="round" stroke-linejoin="round"/>
</svg>
